# xmcd
#
# Track frame offsets:
#	150
#	12502
#	27625
#	41480
#	54910
#	74337
#	91470
#	103820
#	120107
#	132042
#	146470
#	167707
#	185685
#	196815
#	209585
#	223282
#	233347
#	244750
#	285822
#	300782
#
# Disc length: 4386 seconds
#
# Revision: 1
# Processed by: cddbd v1.4PL0 Copyright (c) Steve Scherf et al.
# Submitted via: EasyCDDAExtractor 5.0.6
#
DISCID=12112014
DTITLE=Crescendo Artists - 1954-1994 Sampler
DYEAR=1994
DGENRE=R&B
TTITLE0=La Bas Two Step- Queen Ida
TTITLE1=Gator Man- Queen Ida
TTITLE2=Chere Duloone- Queen Ida
TTITLE3=Hello Rosa-Lee- Clifton Chenier
TTITLE4=Jolie Blon- Queen Ida
TTITLE5=I-10 Express- Queen Ida
TTITLE6=The Ranger's Waltz- Queen Ida
TTITLE7=Jive Little Girl- Freeze Guillory
TTITLE8=Mazuka- Queen Ida
TTITLE9=Boogie Lousiane- Clifton Chenier
TTITLE10=Crying My Heart Out- Clifton Chenier
TTITLE11=I'm Gonna Take You Home Tonite- Clifton Chenier
TTITLE12=Boodiein' In New Orleans- Clifton Chenier
TTITLE13=Bedbug- Calimbo Steel Band
TTITLE14=El Mercumbe- Calimbo Steel Band
TTITLE15=Iceman- Calimbo Steel Band
TTITLE16=Limbo- Calimbo Steel Band
TTITLE17=Rolling With The Blues- John Mayall
TTITLE18=The Stainless Steel Rat- Blues Caravan
TTITLE19=The Vigilante- Blues Caravan
EXTD=
EXTT0=
EXTT1=
EXTT2=
EXTT3=
EXTT4=
EXTT5=
EXTT6=
EXTT7=
EXTT8=
EXTT9=
EXTT10=
EXTT11=
EXTT12=
EXTT13=
EXTT14=
EXTT15=
EXTT16=
EXTT17=
EXTT18=
EXTT19=
PLAYORDER=
